# xmcd
#
# Track frame offsets:
# 150
# 12665
# 22982
# 35658
# 47936
# 59092
# 70140
# 81550
# 90638
# 99275
# 109630
# 120585
# 126704
# 136982
#
# Disc length: 1994 seconds
#
#
# Revision: 0
# Processed by: cddbd v1.4PL0 Copyright (c) Steve Scherf et al.
# Submitted via: FreeRIP 2.35 
#
DISCID=ca07c80e
DTITLE=Johnny Cash - From the Vaults, Volume 2
DYEAR=2003
DGENRE=Country
TTITLE0=I Walk The Line
TTITLE1=Get Rhythm
TTITLE2=Give My Love To Rose
TTITLE3=Home Of The Blues
TTITLE4=I Heard That Lonesome Whistle Blow
TTITLE5=I Just Thought You'd Like To Know
TTITLE6=Oh Lonesome Me
TTITLE7=Katy Too
TTITLE8=I Forgot To Remember To Forget
TTITLE9=I Was There When It Happened
TTITLE10=Fools Hall Of Fames
TTITLE11=You Tell Me
TTITLE12=I Could Never Be Ashamed Of You
TTITLE13=Next In Line
EXTD=
EXTT0=
EXTT1=
EXTT2=
EXTT3=
EXTT4=
EXTT5=
EXTT6=
EXTT7=
EXTT8=
EXTT9=
EXTT10=
EXTT11=
EXTT12=
EXTT13=
PLAYORDER=
